<mxfile host="app.diagrams.net" modified="2024-04-16T02:03:12.559Z" agent="Mozilla/5.0 (Windows NT 10.0; Win64; x64) AppleWebKit/537.36 (KHTML, like Gecko) Chrome/123.0.0.0 Safari/537.36" etag="Km5wg2-vhXxeaY1cHtzM" version="24.2.5" type="device">
  <diagram id="C5RBs43oDa-KdzZeNtuy" name="Page-1">
    <mxGraphModel dx="954" dy="566" grid="1" gridSize="10" guides="1" tooltips="1" connect="1" arrows="1" fold="1" page="1" pageScale="1" pageWidth="827" pageHeight="1169" math="0" shadow="0">
      <root>
        <mxCell id="WIyWlLk6GJQsqaUBKTNV-0" />
        <mxCell id="WIyWlLk6GJQsqaUBKTNV-1" parent="WIyWlLk6GJQsqaUBKTNV-0" />
        <mxCell id="XwCnFEV1DA9XvAOcCUmm-4" style="edgeStyle=orthogonalEdgeStyle;rounded=0;orthogonalLoop=1;jettySize=auto;html=1;" parent="WIyWlLk6GJQsqaUBKTNV-1" source="XwCnFEV1DA9XvAOcCUmm-0" target="XwCnFEV1DA9XvAOcCUmm-1" edge="1">
          <mxGeometry relative="1" as="geometry" />
        </mxCell>
        <mxCell id="XwCnFEV1DA9XvAOcCUmm-0" value="库存盘点" style="strokeWidth=2;html=1;shape=mxgraph.flowchart.display;whiteSpace=wrap;" parent="WIyWlLk6GJQsqaUBKTNV-1" vertex="1">
          <mxGeometry x="50" y="160" width="100" height="60" as="geometry" />
        </mxCell>
        <mxCell id="XwCnFEV1DA9XvAOcCUmm-14" style="edgeStyle=orthogonalEdgeStyle;rounded=0;orthogonalLoop=1;jettySize=auto;html=1;" parent="WIyWlLk6GJQsqaUBKTNV-1" source="XwCnFEV1DA9XvAOcCUmm-1" target="XwCnFEV1DA9XvAOcCUmm-13" edge="1">
          <mxGeometry relative="1" as="geometry" />
        </mxCell>
        <mxCell id="XwCnFEV1DA9XvAOcCUmm-1" value="库存信息查询" style="rounded=0;whiteSpace=wrap;html=1;" parent="WIyWlLk6GJQsqaUBKTNV-1" vertex="1">
          <mxGeometry x="40" y="270" width="120" height="60" as="geometry" />
        </mxCell>
        <mxCell id="XwCnFEV1DA9XvAOcCUmm-2" value="库存信息表" style="shape=cylinder3;whiteSpace=wrap;html=1;boundedLbl=1;backgroundOutline=1;size=15;" parent="WIyWlLk6GJQsqaUBKTNV-1" vertex="1">
          <mxGeometry x="250" y="265" width="80" height="70" as="geometry" />
        </mxCell>
        <mxCell id="XwCnFEV1DA9XvAOcCUmm-3" value="" style="endArrow=classic;startArrow=classic;html=1;rounded=0;" parent="WIyWlLk6GJQsqaUBKTNV-1" source="XwCnFEV1DA9XvAOcCUmm-1" target="XwCnFEV1DA9XvAOcCUmm-2" edge="1">
          <mxGeometry width="50" height="50" relative="1" as="geometry">
            <mxPoint x="140" y="310" as="sourcePoint" />
            <mxPoint x="190" y="260" as="targetPoint" />
          </mxGeometry>
        </mxCell>
        <mxCell id="XwCnFEV1DA9XvAOcCUmm-10" style="edgeStyle=orthogonalEdgeStyle;rounded=0;orthogonalLoop=1;jettySize=auto;html=1;" parent="WIyWlLk6GJQsqaUBKTNV-1" source="XwCnFEV1DA9XvAOcCUmm-6" target="XwCnFEV1DA9XvAOcCUmm-8" edge="1">
          <mxGeometry relative="1" as="geometry" />
        </mxCell>
        <mxCell id="XwCnFEV1DA9XvAOcCUmm-31" value="" style="edgeStyle=orthogonalEdgeStyle;rounded=0;orthogonalLoop=1;jettySize=auto;html=1;" parent="WIyWlLk6GJQsqaUBKTNV-1" source="XwCnFEV1DA9XvAOcCUmm-6" target="XwCnFEV1DA9XvAOcCUmm-8" edge="1">
          <mxGeometry relative="1" as="geometry" />
        </mxCell>
        <mxCell id="XwCnFEV1DA9XvAOcCUmm-32" value="YES" style="edgeLabel;html=1;align=center;verticalAlign=middle;resizable=0;points=[];" parent="XwCnFEV1DA9XvAOcCUmm-31" vertex="1" connectable="0">
          <mxGeometry x="-0.2667" y="1" relative="1" as="geometry">
            <mxPoint as="offset" />
          </mxGeometry>
        </mxCell>
        <mxCell id="XwCnFEV1DA9XvAOcCUmm-6" value="库存量是否小于临界值" style="rhombus;whiteSpace=wrap;html=1;" parent="WIyWlLk6GJQsqaUBKTNV-1" vertex="1">
          <mxGeometry x="430" y="380" width="140" height="80" as="geometry" />
        </mxCell>
        <mxCell id="XwCnFEV1DA9XvAOcCUmm-12" style="edgeStyle=orthogonalEdgeStyle;rounded=0;orthogonalLoop=1;jettySize=auto;html=1;" parent="WIyWlLk6GJQsqaUBKTNV-1" source="XwCnFEV1DA9XvAOcCUmm-7" target="XwCnFEV1DA9XvAOcCUmm-6" edge="1">
          <mxGeometry relative="1" as="geometry" />
        </mxCell>
        <mxCell id="XwCnFEV1DA9XvAOcCUmm-7" value="系统自动识别药品库存" style="rounded=0;whiteSpace=wrap;html=1;" parent="WIyWlLk6GJQsqaUBKTNV-1" vertex="1">
          <mxGeometry x="440" y="270" width="120" height="60" as="geometry" />
        </mxCell>
        <mxCell id="XwCnFEV1DA9XvAOcCUmm-16" style="edgeStyle=orthogonalEdgeStyle;rounded=0;orthogonalLoop=1;jettySize=auto;html=1;" parent="WIyWlLk6GJQsqaUBKTNV-1" source="XwCnFEV1DA9XvAOcCUmm-8" target="XwCnFEV1DA9XvAOcCUmm-15" edge="1">
          <mxGeometry relative="1" as="geometry" />
        </mxCell>
        <mxCell id="XwCnFEV1DA9XvAOcCUmm-8" value="提示库存不足" style="rounded=0;whiteSpace=wrap;html=1;" parent="WIyWlLk6GJQsqaUBKTNV-1" vertex="1">
          <mxGeometry x="641" y="390" width="120" height="60" as="geometry" />
        </mxCell>
        <mxCell id="XwCnFEV1DA9XvAOcCUmm-9" value="" style="endArrow=classic;startArrow=classic;html=1;rounded=0;" parent="WIyWlLk6GJQsqaUBKTNV-1" source="XwCnFEV1DA9XvAOcCUmm-7" target="XwCnFEV1DA9XvAOcCUmm-2" edge="1">
          <mxGeometry width="50" height="50" relative="1" as="geometry">
            <mxPoint x="260" y="370" as="sourcePoint" />
            <mxPoint x="310" y="320" as="targetPoint" />
          </mxGeometry>
        </mxCell>
        <mxCell id="XwCnFEV1DA9XvAOcCUmm-18" style="edgeStyle=orthogonalEdgeStyle;rounded=0;orthogonalLoop=1;jettySize=auto;html=1;" parent="WIyWlLk6GJQsqaUBKTNV-1" source="XwCnFEV1DA9XvAOcCUmm-13" target="XwCnFEV1DA9XvAOcCUmm-17" edge="1">
          <mxGeometry relative="1" as="geometry" />
        </mxCell>
        <mxCell id="XwCnFEV1DA9XvAOcCUmm-13" value="药品库存信息" style="strokeWidth=2;html=1;shape=mxgraph.flowchart.display;whiteSpace=wrap;" parent="WIyWlLk6GJQsqaUBKTNV-1" vertex="1">
          <mxGeometry x="50" y="390" width="100" height="60" as="geometry" />
        </mxCell>
        <mxCell id="XwCnFEV1DA9XvAOcCUmm-20" style="edgeStyle=orthogonalEdgeStyle;rounded=0;orthogonalLoop=1;jettySize=auto;html=1;" parent="WIyWlLk6GJQsqaUBKTNV-1" source="XwCnFEV1DA9XvAOcCUmm-15" target="XwCnFEV1DA9XvAOcCUmm-19" edge="1">
          <mxGeometry relative="1" as="geometry">
            <mxPoint x="500" y="770" as="targetPoint" />
          </mxGeometry>
        </mxCell>
        <mxCell id="layL7wQ-Ctnk310BwO7u-1" style="edgeStyle=orthogonalEdgeStyle;rounded=0;orthogonalLoop=1;jettySize=auto;html=1;exitX=0.5;exitY=1;exitDx=0;exitDy=0;startArrow=classicThin;startFill=1;entryX=0.5;entryY=0;entryDx=0;entryDy=0;entryPerimeter=0;" parent="WIyWlLk6GJQsqaUBKTNV-1" source="XwCnFEV1DA9XvAOcCUmm-15" target="layL7wQ-Ctnk310BwO7u-2" edge="1">
          <mxGeometry relative="1" as="geometry">
            <mxPoint x="701.363636363636" y="670" as="targetPoint" />
          </mxGeometry>
        </mxCell>
        <mxCell id="XwCnFEV1DA9XvAOcCUmm-15" value="采购药品" style="rounded=0;whiteSpace=wrap;html=1;" parent="WIyWlLk6GJQsqaUBKTNV-1" vertex="1">
          <mxGeometry x="641" y="510" width="120" height="60" as="geometry" />
        </mxCell>
        <mxCell id="XwCnFEV1DA9XvAOcCUmm-17" value="结束" style="strokeWidth=2;html=1;shape=mxgraph.flowchart.terminator;whiteSpace=wrap;" parent="WIyWlLk6GJQsqaUBKTNV-1" vertex="1">
          <mxGeometry x="50" y="630" width="100" height="60" as="geometry" />
        </mxCell>
        <mxCell id="XwCnFEV1DA9XvAOcCUmm-38" style="edgeStyle=orthogonalEdgeStyle;rounded=0;orthogonalLoop=1;jettySize=auto;html=1;" parent="WIyWlLk6GJQsqaUBKTNV-1" source="XwCnFEV1DA9XvAOcCUmm-19" target="XwCnFEV1DA9XvAOcCUmm-37" edge="1">
          <mxGeometry relative="1" as="geometry" />
        </mxCell>
        <mxCell id="XwCnFEV1DA9XvAOcCUmm-19" value="药品入库" style="rounded=0;whiteSpace=wrap;html=1;" parent="WIyWlLk6GJQsqaUBKTNV-1" vertex="1">
          <mxGeometry x="440" y="510" width="120" height="60" as="geometry" />
        </mxCell>
        <mxCell id="XwCnFEV1DA9XvAOcCUmm-35" style="edgeStyle=orthogonalEdgeStyle;rounded=0;orthogonalLoop=1;jettySize=auto;html=1;" parent="WIyWlLk6GJQsqaUBKTNV-1" source="XwCnFEV1DA9XvAOcCUmm-33" target="XwCnFEV1DA9XvAOcCUmm-34" edge="1">
          <mxGeometry relative="1" as="geometry" />
        </mxCell>
        <mxCell id="XwCnFEV1DA9XvAOcCUmm-33" value="药品出售" style="rounded=0;whiteSpace=wrap;html=1;" parent="WIyWlLk6GJQsqaUBKTNV-1" vertex="1">
          <mxGeometry x="440" y="160" width="120" height="60" as="geometry" />
        </mxCell>
        <mxCell id="XwCnFEV1DA9XvAOcCUmm-40" style="edgeStyle=orthogonalEdgeStyle;rounded=0;orthogonalLoop=1;jettySize=auto;html=1;" parent="WIyWlLk6GJQsqaUBKTNV-1" source="XwCnFEV1DA9XvAOcCUmm-34" target="XwCnFEV1DA9XvAOcCUmm-2" edge="1">
          <mxGeometry relative="1" as="geometry" />
        </mxCell>
        <mxCell id="XwCnFEV1DA9XvAOcCUmm-34" value="记录出售信息" style="rounded=0;whiteSpace=wrap;html=1;" parent="WIyWlLk6GJQsqaUBKTNV-1" vertex="1">
          <mxGeometry x="230" y="160" width="120" height="60" as="geometry" />
        </mxCell>
        <mxCell id="XwCnFEV1DA9XvAOcCUmm-39" style="edgeStyle=orthogonalEdgeStyle;rounded=0;orthogonalLoop=1;jettySize=auto;html=1;" parent="WIyWlLk6GJQsqaUBKTNV-1" source="XwCnFEV1DA9XvAOcCUmm-37" target="XwCnFEV1DA9XvAOcCUmm-2" edge="1">
          <mxGeometry relative="1" as="geometry" />
        </mxCell>
        <mxCell id="XwCnFEV1DA9XvAOcCUmm-37" value="记录入库信息" style="rounded=0;whiteSpace=wrap;html=1;" parent="WIyWlLk6GJQsqaUBKTNV-1" vertex="1">
          <mxGeometry x="440" y="640" width="120" height="60" as="geometry" />
        </mxCell>
        <mxCell id="iDpr0vZtZcxT9Ck7Ez7c-0" value="顾客信息表" style="strokeWidth=2;html=1;shape=mxgraph.flowchart.database;whiteSpace=wrap;" parent="WIyWlLk6GJQsqaUBKTNV-1" vertex="1">
          <mxGeometry x="250" y="60" width="80" height="60" as="geometry" />
        </mxCell>
        <mxCell id="iDpr0vZtZcxT9Ck7Ez7c-1" style="edgeStyle=orthogonalEdgeStyle;rounded=0;orthogonalLoop=1;jettySize=auto;html=1;exitX=0.5;exitY=0;exitDx=0;exitDy=0;entryX=0.5;entryY=1;entryDx=0;entryDy=0;entryPerimeter=0;" parent="WIyWlLk6GJQsqaUBKTNV-1" source="XwCnFEV1DA9XvAOcCUmm-34" target="iDpr0vZtZcxT9Ck7Ez7c-0" edge="1">
          <mxGeometry relative="1" as="geometry" />
        </mxCell>
        <mxCell id="layL7wQ-Ctnk310BwO7u-0" style="edgeStyle=orthogonalEdgeStyle;rounded=0;orthogonalLoop=1;jettySize=auto;html=1;exitX=0.5;exitY=1;exitDx=0;exitDy=0;" parent="WIyWlLk6GJQsqaUBKTNV-1" source="XwCnFEV1DA9XvAOcCUmm-15" target="XwCnFEV1DA9XvAOcCUmm-15" edge="1">
          <mxGeometry relative="1" as="geometry" />
        </mxCell>
        <mxCell id="layL7wQ-Ctnk310BwO7u-2" value="采购信息表" style="strokeWidth=2;html=1;shape=mxgraph.flowchart.database;whiteSpace=wrap;" parent="WIyWlLk6GJQsqaUBKTNV-1" vertex="1">
          <mxGeometry x="661.5" y="640" width="79" height="60" as="geometry" />
        </mxCell>
        <mxCell id="7Mfh_28bKIqnt94zy35t-2" value="缺货日志" style="strokeWidth=2;html=1;shape=mxgraph.flowchart.database;whiteSpace=wrap;" vertex="1" parent="WIyWlLk6GJQsqaUBKTNV-1">
          <mxGeometry x="820" y="460" width="60" height="60" as="geometry" />
        </mxCell>
        <mxCell id="7Mfh_28bKIqnt94zy35t-3" style="edgeStyle=orthogonalEdgeStyle;rounded=0;orthogonalLoop=1;jettySize=auto;html=1;exitX=1;exitY=0.5;exitDx=0;exitDy=0;entryX=0.5;entryY=0;entryDx=0;entryDy=0;entryPerimeter=0;" edge="1" parent="WIyWlLk6GJQsqaUBKTNV-1" source="XwCnFEV1DA9XvAOcCUmm-8" target="7Mfh_28bKIqnt94zy35t-2">
          <mxGeometry relative="1" as="geometry" />
        </mxCell>
        <mxCell id="7Mfh_28bKIqnt94zy35t-4" style="edgeStyle=orthogonalEdgeStyle;rounded=0;orthogonalLoop=1;jettySize=auto;html=1;exitX=1;exitY=0.5;exitDx=0;exitDy=0;entryX=0.5;entryY=1;entryDx=0;entryDy=0;entryPerimeter=0;" edge="1" parent="WIyWlLk6GJQsqaUBKTNV-1" source="XwCnFEV1DA9XvAOcCUmm-15" target="7Mfh_28bKIqnt94zy35t-2">
          <mxGeometry relative="1" as="geometry" />
        </mxCell>
      </root>
    </mxGraphModel>
  </diagram>
</mxfile>
